<svg xmlns="http://www.w3.org/2000/svg" viewBox="0 0 32 32" fill="none">
  <rect width="32" height="32" rx="8" fill="#0f172a"/>
  <path d="M10 12c0-2.2 1.8-4 4-4h4c2.2 0 4 1.8 4 4v1.5c0 .8-.7 1.5-1.5 1.5h-9C10.7 15 10 14.3 10 13.5V12z" fill="#34d399"/>
  <circle cx="13" cy="11" r="1" fill="#0f172a"/>
  <circle cx="19" cy="11" r="1" fill="#0f172a"/>
  <path d="M11 18h10v2c0 2.2-1.8 4-4 4h-2c-2.2 0-4-1.8-4-4v-2z" fill="#2dd4bf" opacity="0.9"/>
  <path d="M8 10h2M22 10h2M16 6v2M16 24v2" stroke="#34d399" stroke-width="1.5" stroke-linecap="round" opacity="0.6"/>
</svg>
